<svg xmlns="http://www.w3.org/2000/svg" viewBox="0 0 233.52 233.76"><defs><style>.cls-1{fill:#fff;}</style></defs><title>dddd</title><g id="Camada_2" data-name="Camada 2"><g id="OBJECTS"><path class="cls-1" d="M110.74,189.16c-35.5-2.92-64-32.1-66.24-67.65a72.53,72.53,0,0,1,72.38-77.16V0A116.88,116.88,0,0,0,.05,120.34C1.8,181,50.88,230.92,111.5,233.64a116.88,116.88,0,0,0,122-109.58H189.05A72.55,72.55,0,0,1,110.74,189.16Z"/><path class="cls-1" d="M111,67c-24.5,2.71-43,23.57-44.52,48.18L66,122.88h32.7l.7-7.08c.73-7.48,5.89-14.07,13.21-15.75a17.33,17.33,0,0,1,21.07,20c-1.5,8.33-9.21,14.11-17.66,14.11H108.1v32.93h7.33c24,0,47.64-19.27,51-43.06A50.29,50.29,0,0,0,111,67Z"/></g></g></svg>